<svg width="20" height="20" viewBox="0 0 20 20" fill="none" xmlns="http://www.w3.org/2000/svg">
<g clip-path="url(#clip0_410_176)">
<path d="M12.5 3.12506C12.5 2.63061 12.3534 2.14726 12.0787 1.73614C11.804 1.32501 11.4136 1.00458 10.9568 0.815363C10.4999 0.626144 9.99728 0.576636 9.51232 0.673099C9.02737 0.769562 8.58191 1.00766 8.23228 1.3573C7.88265 1.70693 7.64455 2.15238 7.54808 2.63734C7.45162 3.12229 7.50113 3.62496 7.69035 4.08177C7.87957 4.53859 8.2 4.92903 8.61112 5.20374C9.02225 5.47844 9.5056 5.62506 10 5.62506C10.6631 5.62506 11.299 5.36167 11.7678 4.89283C12.2367 4.42399 12.5 3.7881 12.5 3.12506ZM10 4.37506C9.75282 4.37506 9.51115 4.30175 9.30559 4.1644C9.10002 4.02705 8.93981 3.83182 8.8452 3.60342C8.75059 3.37501 8.72584 3.12368 8.77407 2.8812C8.8223 2.63872 8.94135 2.41599 9.11617 2.24118C9.29098 2.06636 9.51371 1.94731 9.75619 1.89908C9.99866 1.85085 10.25 1.8756 10.4784 1.97021C10.7068 2.06482 10.902 2.22504 11.0394 2.4306C11.1767 2.63616 11.25 2.87784 11.25 3.12506C11.25 3.45658 11.1184 3.77453 10.8839 4.00895C10.6495 4.24337 10.3316 4.37506 10 4.37506ZM18.086 6.85241C18.0148 6.50238 17.8237 6.18818 17.5455 5.96409C17.2674 5.74 16.9197 5.62009 16.5625 5.62506H3.43755C3.08136 5.62505 2.73586 5.74674 2.4583 5.96996C2.18073 6.19317 1.98777 6.50453 1.91137 6.85242C1.83497 7.20032 1.87973 7.56387 2.03822 7.88285C2.19672 8.20183 2.45944 8.45708 2.78286 8.60631H2.79302L6.75786 10.3524L5.11724 16.5805C4.94557 16.9587 4.93115 17.3895 5.07715 17.7783C5.22315 18.1671 5.51761 18.4819 5.89575 18.6536C6.27389 18.8252 6.70474 18.8397 7.09351 18.6937C7.48228 18.5477 7.79713 18.2532 7.9688 17.8751L10 14.3696L12.0313 17.8751C12.2118 18.2371 12.5257 18.515 12.9069 18.6503C13.2881 18.7856 13.707 18.7678 14.0754 18.6007C14.4437 18.4335 14.7329 18.1299 14.882 17.7539C15.0312 17.3779 15.0287 16.9587 14.875 16.5844L13.2344 10.3563L17.1993 8.61022H17.2094C17.538 8.46598 17.8057 8.21112 17.9658 7.88996C18.126 7.5688 18.1685 7.20166 18.086 6.85241ZM16.6954 7.46959L12.2477 9.42741C12.1115 9.4874 12.0013 9.59401 11.9367 9.72805C11.8721 9.86209 11.8574 10.0148 11.8954 10.1587L13.6821 16.9532C13.6912 16.9896 13.704 17.0249 13.7204 17.0587C13.7466 17.1147 13.7556 17.1773 13.7462 17.2385C13.7368 17.2997 13.7094 17.3567 13.6676 17.4023C13.6257 17.4479 13.5713 17.4801 13.5111 17.4947C13.451 17.5093 13.3879 17.5057 13.3297 17.4844C13.252 17.4559 13.1888 17.3978 13.154 17.3227C13.146 17.3058 13.1372 17.2894 13.1274 17.2735L10.5407 12.8126C10.4857 12.7179 10.4069 12.6392 10.312 12.5846C10.2171 12.5299 10.1095 12.5012 10 12.5012C9.89055 12.5012 9.78298 12.5299 9.6881 12.5846C9.59322 12.6392 9.51436 12.7179 9.45942 12.8126L6.87505 17.2696C6.86527 17.2855 6.8564 17.3019 6.84849 17.3188C6.81362 17.3939 6.7504 17.452 6.67271 17.4805C6.61459 17.5018 6.55146 17.5054 6.49132 17.4908C6.43118 17.4761 6.37673 17.444 6.33489 17.3984C6.29304 17.3528 6.26569 17.2958 6.25629 17.2346C6.24688 17.1734 6.25586 17.1108 6.28208 17.0548C6.29842 17.021 6.31125 16.9857 6.32036 16.9493L8.10474 10.1563C8.14266 10.0124 8.12802 9.85975 8.06343 9.72571C7.99884 9.59166 7.88855 9.48506 7.75239 9.42506L3.30474 7.46959C3.24089 7.43913 3.18927 7.38791 3.15832 7.3243C3.12737 7.26069 3.11891 7.18846 3.13433 7.11943C3.14976 7.05039 3.18814 6.98863 3.24322 6.94424C3.2983 6.89985 3.36681 6.87546 3.43755 6.87506H16.5625C16.6335 6.87493 16.7024 6.89894 16.7578 6.94315C16.8133 6.98735 16.8521 7.04912 16.8678 7.11829C16.8836 7.18746 16.8753 7.25993 16.8444 7.32377C16.8134 7.38762 16.7617 7.43904 16.6977 7.46959H16.6954Z" fill="#38343D"/>
</g>
<defs>
<clipPath id="clip0_410_176">
<rect width="20" height="20" fill="white"/>
</clipPath>
</defs>
</svg>
