<svg width="20" height="20" viewBox="0 0 20 20" fill="none" xmlns="http://www.w3.org/2000/svg">
<path d="M10 1.87503C8.39303 1.87503 6.82214 2.35155 5.486 3.24434C4.14985 4.13713 3.10844 5.40608 2.49348 6.89073C1.87852 8.37538 1.71762 10.009 2.03112 11.5851C2.34463 13.1612 3.11846 14.609 4.25476 15.7453C5.39106 16.8816 6.8388 17.6554 8.4149 17.9689C9.99099 18.2824 11.6247 18.1215 13.1093 17.5066C14.594 16.8916 15.8629 15.8502 16.7557 14.514C17.6485 13.1779 18.125 11.607 18.125 10C18.1227 7.84584 17.266 5.78054 15.7427 4.2573C14.2195 2.73406 12.1542 1.87731 10 1.87503ZM5.7875 15.4297C6.23964 14.7226 6.86251 14.1407 7.59869 13.7376C8.33488 13.3345 9.16069 13.1232 10 13.1232C10.8393 13.1232 11.6651 13.3345 12.4013 13.7376C13.1375 14.1407 13.7604 14.7226 14.2125 15.4297C13.0081 16.3664 11.5258 16.875 10 16.875C8.4742 16.875 6.99193 16.3664 5.7875 15.4297ZM7.5 9.37503C7.5 8.88058 7.64663 8.39723 7.92133 7.9861C8.19603 7.57498 8.58648 7.25455 9.04329 7.06533C9.50011 6.87611 10.0028 6.8266 10.4877 6.92307C10.9727 7.01953 11.4181 7.25763 11.7678 7.60726C12.1174 7.95689 12.3555 8.40235 12.452 8.8873C12.5484 9.37226 12.4989 9.87492 12.3097 10.3317C12.1205 10.7886 11.8001 11.179 11.3889 11.4537C10.9778 11.7284 10.4945 11.875 10 11.875C9.33696 11.875 8.70108 11.6116 8.23224 11.1428C7.7634 10.674 7.5 10.0381 7.5 9.37503ZM15.1375 14.5633C14.4404 13.5532 13.4603 12.7718 12.3203 12.3172C12.9327 11.8349 13.3795 11.1738 13.5987 10.4257C13.8179 9.67769 13.7985 8.87995 13.5433 8.14343C13.2881 7.40691 12.8097 6.76822 12.1746 6.31619C11.5396 5.86417 10.7795 5.62126 10 5.62126C9.22052 5.62126 8.4604 5.86417 7.82536 6.31619C7.19033 6.76822 6.71193 7.40691 6.45671 8.14343C6.20149 8.87995 6.18212 9.67769 6.40131 10.4257C6.62049 11.1738 7.06734 11.8349 7.67969 12.3172C6.5397 12.7718 5.55956 13.5532 4.8625 14.5633C3.9817 13.5728 3.406 12.3488 3.20473 11.0387C3.00346 9.72859 3.1852 8.38823 3.72806 7.17901C4.27093 5.9698 5.15178 4.94329 6.26454 4.22311C7.3773 3.50292 8.67452 3.11975 10 3.11975C11.3255 3.11975 12.6227 3.50292 13.7355 4.22311C14.8482 4.94329 15.7291 5.9698 16.2719 7.17901C16.8148 8.38823 16.9966 9.72859 16.7953 11.0387C16.594 12.3488 16.0183 13.5728 15.1375 14.5633Z" fill="#38343D"/>
</svg>
