<svg width="20" height="20" viewBox="0 0 20 20" fill="none" xmlns="http://www.w3.org/2000/svg">
<path d="M17.5 5.62512H16.25V5.00012C16.25 4.50284 16.0525 4.02593 15.7008 3.6743C15.3492 3.32267 14.8723 3.12512 14.375 3.12512H3.125C2.62772 3.12512 2.15081 3.32267 1.79917 3.6743C1.44754 4.02593 1.25 4.50284 1.25 5.00012V12.5001C1.25 12.9974 1.44754 13.4743 1.79917 13.8259C2.15081 14.1776 2.62772 14.3751 3.125 14.3751H11.875V15.0001C11.875 15.4974 12.0725 15.9743 12.4242 16.3259C12.7758 16.6776 13.2527 16.8751 13.75 16.8751H17.5C17.9973 16.8751 18.4742 16.6776 18.8258 16.3259C19.1775 15.9743 19.375 15.4974 19.375 15.0001V7.50012C19.375 7.00284 19.1775 6.52593 18.8258 6.1743C18.4742 5.82267 17.9973 5.62512 17.5 5.62512ZM3.125 13.1251C2.95924 13.1251 2.80027 13.0593 2.68306 12.9421C2.56585 12.8249 2.5 12.6659 2.5 12.5001V5.00012C2.5 4.83436 2.56585 4.67539 2.68306 4.55818C2.80027 4.44097 2.95924 4.37512 3.125 4.37512H14.375C14.5408 4.37512 14.6997 4.44097 14.8169 4.55818C14.9342 4.67539 15 4.83436 15 5.00012V5.62512H13.75C13.2527 5.62512 12.7758 5.82267 12.4242 6.1743C12.0725 6.52593 11.875 7.00284 11.875 7.50012V13.1251H3.125ZM18.125 15.0001C18.125 15.1659 18.0592 15.3249 17.9419 15.4421C17.8247 15.5593 17.6658 15.6251 17.5 15.6251H13.75C13.5842 15.6251 13.4253 15.5593 13.3081 15.4421C13.1908 15.3249 13.125 15.1659 13.125 15.0001V7.50012C13.125 7.33436 13.1908 7.17539 13.3081 7.05818C13.4253 6.94097 13.5842 6.87512 13.75 6.87512H17.5C17.6658 6.87512 17.8247 6.94097 17.9419 7.05818C18.0592 7.17539 18.125 7.33436 18.125 7.50012V15.0001ZM10.625 16.2501C10.625 16.4159 10.5592 16.5749 10.4419 16.6921C10.3247 16.8093 10.1658 16.8751 10 16.8751H6.875C6.70924 16.8751 6.55027 16.8093 6.43306 16.6921C6.31585 16.5749 6.25 16.4159 6.25 16.2501C6.25 16.0844 6.31585 15.9254 6.43306 15.8082C6.55027 15.691 6.70924 15.6251 6.875 15.6251H10C10.1658 15.6251 10.3247 15.691 10.4419 15.8082C10.5592 15.9254 10.625 16.0844 10.625 16.2501ZM16.875 8.75012C16.875 8.91588 16.8092 9.07485 16.6919 9.19206C16.5747 9.30927 16.4158 9.37512 16.25 9.37512H15C14.8342 9.37512 14.6753 9.30927 14.5581 9.19206C14.4408 9.07485 14.375 8.91588 14.375 8.75012C14.375 8.58436 14.4408 8.42539 14.5581 8.30818C14.6753 8.19097 14.8342 8.12512 15 8.12512H16.25C16.4158 8.12512 16.5747 8.19097 16.6919 8.30818C16.8092 8.42539 16.875 8.58436 16.875 8.75012Z" fill="#38343D"/>
</svg>
