<svg width="20" height="20" viewBox="0 0 20 20" fill="none" xmlns="http://www.w3.org/2000/svg">
<path d="M12.5 1.25C11.5135 1.25088 10.5412 1.48506 9.66254 1.93341C8.78384 2.38175 8.02363 3.03156 7.44398 3.82977C6.86433 4.62798 6.48167 5.55196 6.32725 6.52627C6.17284 7.50059 6.25104 8.49761 6.55547 9.43594L2.05781 13.9328C1.99979 13.9909 1.95378 14.0598 1.92241 14.1357C1.89105 14.2116 1.87494 14.2929 1.875 14.375V17.5C1.875 17.6658 1.94085 17.8247 2.05806 17.9419C2.17527 18.0592 2.33424 18.125 2.5 18.125H5.625C5.79076 18.125 5.94973 18.0592 6.06694 17.9419C6.18415 17.8247 6.25 17.6658 6.25 17.5V16.25H7.5C7.66576 16.25 7.82473 16.1842 7.94194 16.0669C8.05915 15.9497 8.125 15.7908 8.125 15.625V14.375H9.375C9.4571 14.3751 9.53841 14.359 9.61428 14.3276C9.69015 14.2962 9.7591 14.2502 9.81719 14.1922L10.5641 13.4445C11.4231 13.7234 12.3323 13.8128 13.2292 13.7066C14.1261 13.6004 14.9893 13.3011 15.7593 12.8292C16.5294 12.3574 17.1881 11.7243 17.69 10.9734C18.192 10.2226 18.5252 9.37191 18.6668 8.47994C18.8084 7.58797 18.755 6.6759 18.5103 5.80655C18.2656 4.93719 17.8354 4.13119 17.2493 3.44405C16.6632 2.75691 15.9351 2.20496 15.1153 1.8262C14.2954 1.44743 13.4031 1.25085 12.5 1.25ZM12.5 12.5C11.8673 12.5011 11.2402 12.3815 10.6523 12.1477C10.5373 12.0977 10.41 12.0836 10.2868 12.107C10.1637 12.1304 10.0504 12.1903 9.96172 12.2789L9.11641 13.125H7.5C7.33424 13.125 7.17527 13.1908 7.05806 13.3081C6.94085 13.4253 6.875 13.5842 6.875 13.75V15H5.625C5.45924 15 5.30027 15.0658 5.18306 15.1831C5.06585 15.3003 5 15.4592 5 15.625V16.875H3.125V14.6336L7.72109 10.0383C7.80971 9.94961 7.86961 9.83633 7.89302 9.71317C7.91643 9.59001 7.90225 9.46266 7.85234 9.34766C7.4571 8.35379 7.39098 7.25937 7.66369 6.22514C7.9364 5.19092 8.53357 4.2714 9.36749 3.60164C10.2014 2.93189 11.2281 2.54719 12.2968 2.50407C13.3655 2.46094 14.4199 2.76165 15.3051 3.36203C16.1902 3.96242 16.8596 4.83082 17.2147 5.83971C17.5699 6.8486 17.5922 7.94479 17.2783 8.96727C16.9644 9.98976 16.3309 10.8846 15.4709 11.5205C14.6109 12.1564 13.5696 12.4997 12.5 12.5ZM15 5.9375C15 6.12292 14.945 6.30418 14.842 6.45835C14.739 6.61252 14.5926 6.73268 14.4213 6.80364C14.25 6.87459 14.0615 6.89316 13.8796 6.85699C13.6977 6.82081 13.5307 6.73152 13.3996 6.60041C13.2685 6.4693 13.1792 6.30225 13.143 6.1204C13.1068 5.93854 13.1254 5.75004 13.1964 5.57873C13.2673 5.40743 13.3875 5.26101 13.5417 5.158C13.6958 5.05498 13.8771 5 14.0625 5C14.3111 5 14.5496 5.09877 14.7254 5.27459C14.9012 5.4504 15 5.68886 15 5.9375Z" fill="#38343D"/>
</svg>
