<svg width="20" height="20" viewBox="0 0 20 20" fill="none" xmlns="http://www.w3.org/2000/svg">
<path d="M17.3281 13.7454C16.8945 12.9985 16.2499 10.8852 16.2499 8.12506C16.2499 6.46746 15.5915 4.87775 14.4194 3.70564C13.2473 2.53354 11.6576 1.87506 9.99995 1.87506C8.34235 1.87506 6.75263 2.53354 5.58053 3.70564C4.40843 4.87775 3.74995 6.46746 3.74995 8.12506C3.74995 10.886 3.10464 12.9985 2.67104 13.7454C2.56032 13.9353 2.50162 14.151 2.50086 14.3708C2.50011 14.5906 2.55733 14.8067 2.66674 14.9973C2.77616 15.188 2.93392 15.3464 3.12409 15.4566C3.31427 15.5668 3.53015 15.6249 3.74995 15.6251H6.93823C7.08243 16.3307 7.46591 16.9648 8.0238 17.4202C8.5817 17.8756 9.27977 18.1244 9.99995 18.1244C10.7201 18.1244 11.4182 17.8756 11.9761 17.4202C12.534 16.9648 12.9175 16.3307 13.0617 15.6251H16.2499C16.4697 15.6248 16.6855 15.5665 16.8755 15.4563C17.0656 15.346 17.2232 15.1876 17.3326 14.997C17.4419 14.8064 17.499 14.5903 17.4983 14.3706C17.4975 14.1508 17.4388 13.9352 17.3281 13.7454ZM9.99995 16.8751C9.61231 16.8749 9.23423 16.7547 8.91776 16.5308C8.60129 16.307 8.36197 15.9905 8.23276 15.6251H11.7671C11.6379 15.9905 11.3986 16.307 11.0821 16.5308C10.7657 16.7547 10.3876 16.8749 9.99995 16.8751ZM3.74995 14.3751C4.35151 13.3407 4.99995 10.9438 4.99995 8.12506C4.99995 6.79898 5.52673 5.52721 6.46441 4.58953C7.4021 3.65185 8.67387 3.12506 9.99995 3.12506C11.326 3.12506 12.5978 3.65185 13.5355 4.58953C14.4732 5.52721 14.9999 6.79898 14.9999 8.12506C14.9999 10.9415 15.6468 13.3383 16.2499 14.3751H3.74995Z" fill="#38343D"/>
</svg>
