<svg width="20" height="20" viewBox="0 0 20 20" fill="none" xmlns="http://www.w3.org/2000/svg">
<path d="M10.9375 14.0626C10.9375 14.248 10.8825 14.4293 10.7795 14.5835C10.6765 14.7376 10.5301 14.8578 10.3588 14.9288C10.1875 14.9997 9.99896 15.0183 9.81711 14.9821C9.63525 14.9459 9.4682 14.8566 9.33709 14.7255C9.20598 14.5944 9.11669 14.4274 9.08052 14.2455C9.04434 14.0637 9.06291 13.8752 9.13387 13.7039C9.20482 13.5326 9.32499 13.3861 9.47916 13.2831C9.63333 13.1801 9.81458 13.1251 10 13.1251C10.2486 13.1251 10.4871 13.2239 10.6629 13.3997C10.8387 13.5755 10.9375 13.814 10.9375 14.0626ZM10 5.62512C8.27657 5.62512 6.875 6.88684 6.875 8.43762V8.75012C6.875 8.91588 6.94085 9.07485 7.05806 9.19206C7.17527 9.30927 7.33424 9.37512 7.5 9.37512C7.66576 9.37512 7.82473 9.30927 7.94195 9.19206C8.05916 9.07485 8.125 8.91588 8.125 8.75012V8.43762C8.125 7.57825 8.96641 6.87512 10 6.87512C11.0336 6.87512 11.875 7.57825 11.875 8.43762C11.875 9.297 11.0336 10.0001 10 10.0001C9.83424 10.0001 9.67527 10.066 9.55806 10.1832C9.44085 10.3004 9.375 10.4594 9.375 10.6251V11.2501C9.375 11.4159 9.44085 11.5749 9.55806 11.6921C9.67527 11.8093 9.83424 11.8751 10 11.8751C10.1658 11.8751 10.3247 11.8093 10.4419 11.6921C10.5592 11.5749 10.625 11.4159 10.625 11.2501V11.1939C12.05 10.9322 13.125 9.79543 13.125 8.43762C13.125 6.88684 11.7234 5.62512 10 5.62512ZM18.125 10.0001C18.125 11.6071 17.6485 13.178 16.7557 14.5141C15.8629 15.8503 14.594 16.8917 13.1093 17.5066C11.6247 18.1216 9.99099 18.2825 8.41489 17.969C6.8388 17.6555 5.39106 16.8817 4.25476 15.7454C3.11846 14.6091 2.34463 13.1613 2.03112 11.5852C1.71762 10.0091 1.87852 8.37547 2.49348 6.89082C3.10844 5.40617 4.14985 4.13722 5.486 3.24443C6.82214 2.35165 8.39303 1.87512 10 1.87512C12.1542 1.8774 14.2195 2.73415 15.7427 4.25739C17.266 5.78063 18.1227 7.84594 18.125 10.0001ZM16.875 10.0001C16.875 8.64038 16.4718 7.31116 15.7164 6.18058C14.9609 5.04999 13.8872 4.1688 12.631 3.64845C11.3747 3.1281 9.99238 2.99195 8.65876 3.25722C7.32514 3.5225 6.10013 4.17728 5.13864 5.13876C4.17716 6.10025 3.52238 7.32526 3.2571 8.65888C2.99183 9.9925 3.12798 11.3748 3.64833 12.6311C4.16868 13.8873 5.04987 14.961 6.18046 15.7165C7.31105 16.4719 8.64026 16.8751 10 16.8751C11.8227 16.8731 13.5702 16.1481 14.8591 14.8592C16.1479 13.5703 16.8729 11.8229 16.875 10.0001Z" fill="#38343D"/>
</svg>
