<svg width="20" height="20" viewBox="0 0 20 20" fill="none" xmlns="http://www.w3.org/2000/svg">
<path d="M8.75 16.8751C8.75 17.0409 8.68415 17.1999 8.56694 17.3171C8.44973 17.4343 8.29076 17.5001 8.125 17.5001H3.75C3.41848 17.5001 3.10054 17.3684 2.86612 17.134C2.6317 16.8996 2.5 16.5816 2.5 16.2501V3.75012C2.5 3.4186 2.6317 3.10066 2.86612 2.86624C3.10054 2.63182 3.41848 2.50012 3.75 2.50012H8.125C8.29076 2.50012 8.44973 2.56597 8.56694 2.68318C8.68415 2.80039 8.75 2.95936 8.75 3.12512C8.75 3.29088 8.68415 3.44985 8.56694 3.56706C8.44973 3.68427 8.29076 3.75012 8.125 3.75012H3.75V16.2501H8.125C8.29076 16.2501 8.44973 16.316 8.56694 16.4332C8.68415 16.5504 8.75 16.7094 8.75 16.8751ZM17.3172 9.55793L14.1922 6.43293C14.0749 6.31566 13.9159 6.24977 13.75 6.24977C13.5841 6.24977 13.4251 6.31566 13.3078 6.43293C13.1905 6.55021 13.1247 6.70927 13.1247 6.87512C13.1247 7.04097 13.1905 7.20003 13.3078 7.31731L15.3664 9.37512H8.125C7.95924 9.37512 7.80027 9.44097 7.68306 9.55818C7.56585 9.67539 7.5 9.83436 7.5 10.0001C7.5 10.1659 7.56585 10.3249 7.68306 10.4421C7.80027 10.5593 7.95924 10.6251 8.125 10.6251H15.3664L13.3078 12.6829C13.1905 12.8002 13.1247 12.9593 13.1247 13.1251C13.1247 13.291 13.1905 13.45 13.3078 13.5673C13.4251 13.6846 13.5841 13.7505 13.75 13.7505C13.9159 13.7505 14.0749 13.6846 14.1922 13.5673L17.3172 10.4423C17.3753 10.3843 17.4214 10.3153 17.4529 10.2395C17.4843 10.1636 17.5005 10.0823 17.5005 10.0001C17.5005 9.91799 17.4843 9.83666 17.4529 9.76078C17.4214 9.68491 17.3753 9.61598 17.3172 9.55793Z" fill="#AA2222"/>
</svg>
