<svg width="20" height="20" viewBox="0 0 20 20" fill="none" xmlns="http://www.w3.org/2000/svg">
<g clip-path="url(#clip0_410_179)">
<path d="M19.8172 10.4423L17.9422 12.3173C17.8841 12.3754 17.8152 12.4215 17.7393 12.453C17.6634 12.4844 17.5821 12.5006 17.5 12.5006C17.4178 12.5006 17.3365 12.4844 17.2606 12.453C17.1848 12.4215 17.1158 12.3754 17.0578 12.3173L15.1828 10.4423C15.0655 10.325 14.9996 10.166 14.9996 10.0001C14.9996 9.83425 15.0655 9.67519 15.1828 9.55792C15.3001 9.44064 15.4591 9.37476 15.625 9.37476C15.7908 9.37476 15.9499 9.44064 16.0672 9.55792L16.875 10.3665V10.0001C16.8757 8.54435 16.4143 7.12594 15.5573 5.9492C14.7002 4.77247 13.4918 3.89816 12.106 3.45222C10.7202 3.00628 9.22866 3.01174 7.84618 3.4678C6.46371 3.92386 5.26168 4.80698 4.41326 5.98995C4.3165 6.12463 4.1702 6.21535 4.00654 6.24216C3.84289 6.26898 3.67529 6.22968 3.54061 6.13292C3.40593 6.03615 3.3152 5.88985 3.28839 5.7262C3.26158 5.56254 3.30088 5.39494 3.39764 5.26026C4.40036 3.86223 5.82098 2.81857 7.45484 2.27965C9.08871 1.74072 10.8515 1.73434 12.4892 2.26142C14.1269 2.78851 15.555 3.82185 16.5679 5.21258C17.5807 6.60332 18.1259 8.27965 18.125 10.0001V10.3665L18.9328 9.55792C19.0501 9.44064 19.2091 9.37476 19.375 9.37476C19.5408 9.37476 19.6999 9.44064 19.8172 9.55792C19.9344 9.67519 20.0003 9.83425 20.0003 10.0001C20.0003 10.166 19.9344 10.325 19.8172 10.4423ZM16.6 14.7392C15.597 16.1361 14.1766 17.1788 12.5432 17.7171C10.9099 18.2554 9.14785 18.2616 7.51079 17.7347C5.87372 17.2079 4.44605 16.1751 3.43329 14.7852C2.42053 13.3953 1.87491 11.7199 1.87498 10.0001V9.6337L1.06717 10.4423C0.949893 10.5596 0.790834 10.6255 0.624981 10.6255C0.459129 10.6255 0.300069 10.5596 0.182794 10.4423C0.0655184 10.325 -0.000366211 10.166 -0.000366211 10.0001C-0.000366211 9.83425 0.0655184 9.67519 0.182794 9.55792L2.05779 7.68292C2.11584 7.62481 2.18477 7.57871 2.26064 7.54725C2.33652 7.5158 2.41785 7.49961 2.49998 7.49961C2.58212 7.49961 2.66345 7.5158 2.73932 7.54725C2.81519 7.57871 2.88412 7.62481 2.94217 7.68292L4.81717 9.55792C4.93444 9.67519 5.00033 9.83425 5.00033 10.0001C5.00033 10.166 4.93444 10.325 4.81717 10.4423C4.69989 10.5596 4.54083 10.6255 4.37498 10.6255C4.20913 10.6255 4.05007 10.5596 3.93279 10.4423L3.12498 9.6337V10.0001C3.1235 11.6831 3.74205 13.3076 4.86248 14.5634C5.55954 13.5533 6.53968 12.7718 7.67967 12.3173C7.06731 11.835 6.62047 11.1738 6.40129 10.4258C6.1821 9.67777 6.20147 8.88002 6.45669 8.1435C6.71191 7.40698 7.19031 6.76829 7.82534 6.31627C8.46038 5.86424 9.22049 5.62133 9.99998 5.62133C10.7795 5.62133 11.5396 5.86424 12.1746 6.31627C12.8097 6.76829 13.2881 7.40698 13.5433 8.1435C13.7985 8.88002 13.8179 9.67777 13.5987 10.4258C13.3795 11.1738 12.9327 11.835 12.3203 12.3173C13.4613 12.7719 14.4422 13.5543 15.139 14.5657C15.2971 14.3883 15.446 14.2029 15.5851 14.0103C15.6819 13.8756 15.8282 13.7849 15.9919 13.758C16.1555 13.7312 16.3231 13.7705 16.4578 13.8673C16.5925 13.9641 16.6832 14.1104 16.71 14.274C16.7368 14.4377 16.6975 14.6053 16.6008 14.7399L16.6 14.7392ZM9.99998 11.8751C10.4944 11.8751 10.9778 11.7285 11.3889 11.4538C11.8 11.1791 12.1205 10.7886 12.3097 10.3318C12.4989 9.875 12.5484 9.37233 12.4519 8.88738C12.3555 8.40242 12.1174 7.95697 11.7677 7.60734C11.4181 7.2577 10.9727 7.0196 10.4877 6.92314C10.0028 6.82668 9.50009 6.87618 9.04327 7.0654C8.58646 7.25462 8.19601 7.57505 7.92131 7.98618C7.6466 8.3973 7.49998 8.88065 7.49998 9.3751C7.49998 10.0381 7.76337 10.674 8.23221 11.1429C8.70106 11.6117 9.33694 11.8751 9.99998 11.8751ZM9.99998 16.8751C11.5253 16.8731 13.0069 16.3651 14.2125 15.4306C13.7603 14.7234 13.1375 14.1415 12.4013 13.7384C11.6651 13.3353 10.8393 13.1241 9.99998 13.1241C9.16067 13.1241 8.33485 13.3353 7.59867 13.7384C6.86249 14.1415 6.23962 14.7234 5.78748 15.4306C6.99125 16.3684 8.47401 16.8769 9.99998 16.8751Z" fill="#38343D"/>
</g>
<defs>
<clipPath id="clip0_410_179">
<rect width="20" height="20" fill="white"/>
</clipPath>
</defs>
</svg>
